<?xml version="1.0" encoding="UTF-8" standalone="no"?>
<!-- Created with Inkscape (http://www.inkscape.org/) -->

<svg
   width="211.40182mm"
   height="161.6322mm"
   viewBox="0 0 211.40182 161.6322"
   version="1.1"
   id="svg5"
   inkscape:version="1.1.1 (c3084ef, 2021-09-22)"
   sodipodi:docname="drawing.svg"
   xmlns:inkscape="http://www.inkscape.org/namespaces/inkscape"
   xmlns:sodipodi="http://sodipodi.sourceforge.net/DTD/sodipodi-0.dtd"
   xmlns="http://www.w3.org/2000/svg"
   xmlns:svg="http://www.w3.org/2000/svg">
  <sodipodi:namedview
     id="namedview7"
     pagecolor="#ffffff"
     bordercolor="#666666"
     borderopacity="1.0"
     inkscape:pageshadow="2"
     inkscape:pageopacity="0.0"
     inkscape:pagecheckerboard="0"
     inkscape:document-units="mm"
     showgrid="false"
     inkscape:zoom="0.79962912"
     inkscape:cx="612.15879"
     inkscape:cy="224.47907"
     inkscape:window-width="1312"
     inkscape:window-height="969"
     inkscape:window-x="1774"
     inkscape:window-y="25"
     inkscape:window-maximized="0"
     inkscape:current-layer="layer2"
     fit-margin-top="0"
     fit-margin-left="0"
     fit-margin-right="0"
     fit-margin-bottom="0" />
  <defs
     id="defs2">
    <linearGradient
       id="linearGradient3688"
       inkscape:swatch="solid">
      <stop
         style="stop-color:#000000;stop-opacity:1;"
         offset="0"
         id="stop3686" />
    </linearGradient>
    <linearGradient
       id="linearGradient3682"
       inkscape:swatch="solid">
      <stop
         style="stop-color:#000000;stop-opacity:1;"
         offset="0"
         id="stop3680" />
    </linearGradient>
    <linearGradient
       id="linearGradient3676"
       inkscape:swatch="solid">
      <stop
         style="stop-color:#000000;stop-opacity:1;"
         offset="0"
         id="stop3674" />
    </linearGradient>
    <linearGradient
       id="linearGradient3670"
       inkscape:swatch="solid">
      <stop
         style="stop-color:#000000;stop-opacity:1;"
         offset="0"
         id="stop3668" />
    </linearGradient>
    <linearGradient
       id="linearGradient3664"
       inkscape:swatch="solid">
      <stop
         style="stop-color:#000000;stop-opacity:1;"
         offset="0"
         id="stop3662" />
    </linearGradient>
    <linearGradient
       id="linearGradient3658"
       inkscape:swatch="solid">
      <stop
         style="stop-color:#000000;stop-opacity:1;"
         offset="0"
         id="stop3656" />
    </linearGradient>
    <linearGradient
       id="linearGradient3652"
       inkscape:swatch="solid">
      <stop
         style="stop-color:#000000;stop-opacity:1;"
         offset="0"
         id="stop3650" />
    </linearGradient>
    <linearGradient
       id="linearGradient3646"
       inkscape:swatch="solid">
      <stop
         style="stop-color:#000000;stop-opacity:1;"
         offset="0"
         id="stop3644" />
    </linearGradient>
    <linearGradient
       id="linearGradient3640"
       inkscape:swatch="solid">
      <stop
         style="stop-color:#000000;stop-opacity:1;"
         offset="0"
         id="stop3638" />
    </linearGradient>
    <linearGradient
       id="linearGradient3634"
       inkscape:swatch="solid">
      <stop
         style="stop-color:#000000;stop-opacity:1;"
         offset="0"
         id="stop3632" />
    </linearGradient>
    <linearGradient
       id="linearGradient3556"
       inkscape:swatch="solid">
      <stop
         style="stop-color:#e4e300;stop-opacity:1;"
         offset="0"
         id="stop3554" />
    </linearGradient>
    <linearGradient
       id="linearGradient3492"
       inkscape:swatch="solid">
      <stop
         style="stop-color:#000000;stop-opacity:1;"
         offset="0"
         id="stop3490" />
    </linearGradient>
    <linearGradient
       id="linearGradient3486"
       inkscape:swatch="solid">
      <stop
         style="stop-color:#000000;stop-opacity:1;"
         offset="0"
         id="stop3484" />
    </linearGradient>
    <linearGradient
       id="linearGradient3480"
       inkscape:swatch="solid">
      <stop
         style="stop-color:#000000;stop-opacity:1;"
         offset="0"
         id="stop3478" />
    </linearGradient>
    <linearGradient
       id="linearGradient3474"
       inkscape:swatch="solid">
      <stop
         style="stop-color:#000000;stop-opacity:1;"
         offset="0"
         id="stop3472" />
    </linearGradient>
    <linearGradient
       id="linearGradient3468"
       inkscape:swatch="solid">
      <stop
         style="stop-color:#000000;stop-opacity:1;"
         offset="0"
         id="stop3466" />
    </linearGradient>
    <linearGradient
       id="linearGradient3462"
       inkscape:swatch="solid">
      <stop
         style="stop-color:#000000;stop-opacity:1;"
         offset="0"
         id="stop3460" />
    </linearGradient>
    <linearGradient
       id="linearGradient3456"
       inkscape:swatch="solid">
      <stop
         style="stop-color:#000000;stop-opacity:1;"
         offset="0"
         id="stop3454" />
    </linearGradient>
    <linearGradient
       id="linearGradient3450"
       inkscape:swatch="solid">
      <stop
         style="stop-color:#000000;stop-opacity:1;"
         offset="0"
         id="stop3448" />
    </linearGradient>
    <linearGradient
       id="linearGradient3444"
       inkscape:swatch="solid">
      <stop
         style="stop-color:#000000;stop-opacity:1;"
         offset="0"
         id="stop3442" />
    </linearGradient>
    <linearGradient
       id="linearGradient3438"
       inkscape:swatch="solid">
      <stop
         style="stop-color:#000000;stop-opacity:1;"
         offset="0"
         id="stop3436" />
    </linearGradient>
  </defs>
  <g
     inkscape:groupmode="layer"
     id="layer2"
     inkscape:label="Layer 2"
     style="display:inline"
     transform="translate(-0.52947357,-56.574707)">
    <g
       id="g4098"
       transform="translate(-7.6102989,-19.191189)">
      <path
         style="fill:#e4e3e3;fill-opacity:1;stroke:#000000;stroke-width:0.264583px;stroke-linecap:butt;stroke-linejoin:miter;stroke-opacity:1"
         d="m 73.466361,204.13822 c -0.935879,-1.05287 -1.637787,0.11698 -2.924617,1.75476 -1.28683,1.63779 -4.328432,13.21927 -5.615262,14.38912 -1.286833,1.16984 -1.637787,4.44541 -4.445418,3.39255 -2.807632,-1.05286 0.233971,-5.14732 1.169847,-5.96622 0.935876,-0.81889 3.392554,-9.47575 3.977479,-10.99655 0.584922,-1.5208 1.754769,-2.80763 -0.935879,-3.86049 -2.690646,-1.05287 -2.807632,3.15858 -2.924615,4.91335 -0.116985,1.75477 -0.818893,3.97748 -3.74351,3.0416 -2.924616,-0.93588 -1.754769,-6.0832 -0.584922,-8.30591 1.169845,-2.22271 0,-4.21145 -0.116985,-6.43415 -0.116986,-2.22271 0.350953,-2.45668 0.701907,-3.8605 0.350954,-1.40382 -3.041599,-1.05286 -3.27557,-2.45668 -0.233969,-1.40381 2.807631,-0.93587 3.626524,-3.86049 0.818894,-2.92462 -1.052861,-4.21145 -3.041599,-5.73225 -1.988741,-1.5208 -4.094465,-1.05286 -6.551142,-0.35095 -2.456677,0.7019 -16.026897,11.11354 -18.015635,3.74351 -1.988741,-7.37004 14.623081,-7.48702 16.611819,-9.35878 1.988738,-1.87175 1.988738,-2.80763 2.105724,-5.61526 0,0 0.726922,-0.7347 -0.431167,-1.31374 -1.158089,-0.57905 -2.729781,-0.16545 -3.308826,-1.15809 -0.579044,-0.99265 0.909927,-3.97059 -0.744485,-5.54229 -1.654413,-1.57169 -4.053312,-3.30882 -8.602947,-5.54228 -4.549635,-2.23346 -9.843756,-2.23346 -8.520226,-5.625 1.32353,-3.39155 14.14523,4.38419 15.716922,3.47426 1.571692,-0.90992 4.301473,0.57905 4.384194,-1.07536 0.08272,-1.65442 1.406251,-5.95589 3.226105,-5.79045 1.819854,0.16544 3.88787,2.56434 5.045959,0.99265 1.158089,-1.57169 0.330882,-4.13603 -1.902575,-6.78309 -2.233457,-2.64706 -6.534931,-12.24266 -11.994493,-16.46141 -5.459562,-4.21875 -8.354785,-5.625 -10.753683,-8.68567 -2.398899,-3.06066 -1.406251,-3.2261 -3.308826,-4.05331 -1.902575,-0.82721 -3.474267,-1.07537 -5.542283,-3.14338 -2.068016,-2.06802 -1.902575,-5.37685 -3.060663,-6.53494 C 18.529424,100.1747 8.4375054,92.978 12.738979,89.338292 c 4.301473,-3.639708 11.498169,10.670958 13.483464,10.588242 1.985296,-0.08272 3.80515,-0.08272 5.045959,2.316176 1.24081,2.3989 0.992648,4.54964 3.722429,6.12133 2.729781,1.57169 3.391546,2.72978 5.12868,5.79044 1.737133,3.06067 0.744486,5.2114 2.150736,5.79045 1.406251,0.57904 8.93383,11.74633 11.084566,11.74633 2.150737,0 5.294121,6.45221 9.595595,5.70772 4.301473,-0.74448 4.715076,-0.4136 5.542283,-2.23345 0.827206,-1.81986 -2.316178,-8.02391 -2.398899,-9.26471 -0.08272,-1.24081 -4.549635,-8.76839 -2.647061,-9.34744 1.902575,-0.57904 1.985296,3.55699 2.729782,4.21876 0.744485,0.66176 1.654412,4.38419 2.64706,4.13603 0.992648,-0.24816 5.12868,5.45956 6.369489,4.96324 1.24081,-0.49633 -0.330882,-7.11398 0.165442,-8.68567 0.496324,-1.57169 1.488971,-3.14339 1.075368,-4.46692 -0.413603,-1.32353 -6.121327,-12.8217 -0.744486,-13.15258 5.376842,-0.33088 2.233458,10.4228 3.143385,11.33273 0.909927,0.90993 0.827206,12.90442 4.466914,13.97979 3.639708,1.07537 8.933829,-4.7978 9.01655,-6.20405 0.08272,-1.40625 0.248162,-2.15074 1.654413,-2.3989 1.406251,-0.24816 1.571692,1.32353 2.812502,0.57905 1.240809,-0.74449 2.150736,-1.73714 2.812502,-4.46692 0.661768,-2.72978 0.909928,-12.73898 3.722428,-12.57354 2.8125,0.16545 2.23346,8.02391 0.16544,12.24266 -2.06801,4.21875 -7.693018,8.4375 -5.045957,11.82905 2.647057,3.39155 5.128677,2.31618 6.534927,-0.4136 1.40625,-2.72978 0.24817,-4.3842 2.06802,-5.45956 1.81985,-1.07537 6.61765,-2.48162 6.28677,-0.33089 -0.33088,2.15074 -4.30148,3.39155 -4.46692,6.12133 -0.16544,2.72978 -2.89522,13.56619 -1.32353,14.88972 1.5717,1.32353 7.77574,1.48897 8.18935,-0.16545 0.4136,-1.65441 -1.15809,-4.63235 -0.33089,-5.54228 0.82721,-0.90993 0.90993,1.73713 2.64706,1.9853 1.73714,0.24816 4.96324,-2.06802 5.62501,-3.88787 0,0 9.84375,-5.87317 13.89707,-6.94854 4.05331,-1.07537 6.86581,-5.45956 9.26471,-7.69302 2.3989,-2.23345 12.57353,-5.625 15.71692,-8.52022 3.14338,-2.89523 9.51287,-7.85846 14.88971,-11.33273 5.37685,-3.474268 11.16729,-4.549636 14.22795,-8.106624 3.06067,-3.556987 8.68567,-10.836404 10.67097,-7.279416 1.98529,3.556988 -7.6103,7.610299 -8.60295,8.851109 -0.99265,1.240809 -12.15993,9.347431 -14.55883,11.167291 -2.3989,1.81985 -7.52758,7.27941 -11.00185,8.52022 -3.47426,1.24081 -9.67831,3.22611 -11.74633,4.63236 -2.06801,1.40625 -4.71507,2.64706 -4.71507,3.55698 0,0.90993 1.90257,1.40626 0.74448,2.31618 -1.15809,0.90993 -1.90257,-1.15809 -2.97794,-1.15809 -1.07537,0 -12.32538,8.35479 -15.2206,9.5956 -2.89522,1.24081 -8.0239,5.45956 -9.34743,7.44486 -1.32353,1.98529 -6.28677,6.78309 -9.09927,7.61029 -2.8125,0.82721 -7.36214,1.5717 -6.36949,4.46692 0.99265,2.89522 5.625,1.57169 6.70037,2.48162 1.07537,0.90993 4.46691,1.65441 6.94853,0.74448 2.48162,-0.90992 4.46692,-2.39889 4.63236,-0.74448 0.16544,1.65441 -4.21875,1.57169 -3.88787,2.3989 0.33088,0.8272 0.33088,1.24081 1.98529,0.99264 1.65442,-0.24816 10.25736,-1.48897 9.67832,2.56434 -0.57904,4.05332 -8.93383,0.16545 -10.34008,0.49633 -1.40625,0.33088 -2.64706,-0.4136 -2.89522,1.65441 -0.24816,2.06802 -1.07537,3.97059 -0.33089,4.54964 0.74449,0.57904 1.5717,0.24816 2.06802,2.06801 0.49632,1.81986 -1.07537,2.15074 -0.16544,2.89522 0.90993,0.74449 2.31618,2.81251 6.20405,4.96324 3.88787,2.15074 11.00184,5.54229 14.22795,5.29412 3.2261,-0.24816 4.05331,-2.15073 8.68566,-0.90992 4.63236,1.24081 14.47612,5.79044 13.23531,9.51287 -1.24081,3.72243 -4.88052,2.72978 -8.35479,1.9853 -3.47426,-0.74449 -5.04596,-0.66177 -8.68566,-2.72978 -3.63971,-2.06802 -0.57905,-2.56434 -6.45221,-4.05332 -5.87317,-1.48897 -16.62685,-4.79779 -19.02575,-3.72243 -2.3989,1.07537 -2.89522,2.23346 -4.46692,2.56434 -1.57169,0.33089 -2.31617,-0.8272 -4.05331,2.15074 -1.73713,2.97794 -3.39154,5.54228 -1.98529,7.69302 1.40625,2.15074 14.55883,14.22795 9.92647,17.28861 -4.63235,3.06067 -3.88787,-8.10662 -8.68566,-11.66361 -4.7978,-3.55698 -7.94119,-9.92647 -16.378691,-9.84375 -8.437505,0.0827 -13.897067,5.12868 -15.716921,8.10662 -1.819855,2.97794 -3.970591,2.3989 -3.391547,6.78309 0.579045,4.3842 -0.579044,5.95589 1.488972,8.10663 2.068016,2.15073 13.400744,16.37868 1.571692,22.50001 -11.829052,6.12133 -4.218753,-19.77023 -5.542283,-22.91362 -1.32353,-3.14338 -0.723622,-9.21463 -2.967511,-9.28103 z"
         id="path717" />
      <ellipse
         style="fill:#e4e3e3;fill-opacity:1;stroke:#000000;stroke-width:0.264583;stroke-opacity:1"
         id="path2735"
         cx="29.77943"
         cy="207.21519"
         rx="6.7830925"
         ry="7.0312543" />
      <ellipse
         style="fill:#e4e3e3;fill-opacity:1;stroke:#000000;stroke-width:0.264583;stroke-opacity:1"
         id="path2841"
         cx="-38.799313"
         cy="72.750313"
         rx="1.5716921"
         ry="5.7077241"
         transform="rotate(-41.118283)" />
      <ellipse
         style="fill:#e4e3e3;fill-opacity:1;stroke:#000000;stroke-width:0.264583;stroke-opacity:1"
         id="path2843"
         cx="-28.941078"
         cy="97.619972"
         rx="1.1580889"
         ry="2.8125017"
         transform="rotate(-35.772634)" />
      <ellipse
         style="fill:#e4e3e3;fill-opacity:1;stroke:#000000;stroke-width:0.264583;stroke-opacity:1"
         id="path2845"
         cx="-30.576807"
         cy="114.67244"
         rx="1.7371334"
         ry="4.3841944"
         transform="rotate(-37.68835)" />
      <ellipse
         style="fill:#e4e3e3;fill-opacity:1;stroke:#000000;stroke-width:0.264583;stroke-opacity:1"
         id="path2847"
         cx="162.36627"
         cy="20.605974"
         rx="1.3235302"
         ry="3.3088255"
         transform="rotate(37.234836)" />
      <ellipse
         style="fill:#e4e3e3;fill-opacity:1;stroke:#000000;stroke-width:0.264583;stroke-opacity:1"
         id="path2849"
         cx="10.670962"
         cy="138.88795"
         rx="2.3988984"
         ry="2.5643396" />
      <ellipse
         style="fill:#e4e3e3;fill-opacity:1;stroke:#000000;stroke-width:0.264583;stroke-opacity:1"
         id="path2851"
         cx="-36.403824"
         cy="186.32518"
         rx="3.7224288"
         ry="1.4889715"
         transform="rotate(-26.702122)" />
      <ellipse
         style="fill:#e4e3e3;fill-opacity:1;stroke:#000000;stroke-width:0.198042;stroke-opacity:1"
         id="path2853"
         cx="-68.500717"
         cy="216.08469"
         rx="0.85932082"
         ry="2.3109725"
         transform="matrix(0.56912854,-0.82224857,0.74239235,0.66996537,0,0)" />
      <ellipse
         style="fill:#e4e3e3;fill-opacity:1;stroke:#000000;stroke-width:0.289068;stroke-opacity:1"
         id="path2855"
         cx="259.81326"
         cy="-46.609699"
         rx="2.6470602"
         ry="3.8878701"
         transform="rotate(45.230186)"
         inkscape:transform-center-x="-0.33088256"
         inkscape:transform-center-y="-1.158089" />
    </g>
  </g>
</svg>
